<svg xmlns="http://www.w3.org/2000/svg" xmlns:xlink="http://www.w3.org/1999/xlink" width="200.773" height="158.081" viewBox="0 0 200.773 158.081">
  <defs>
    <filter id="Path_28" x="0" y="0" width="94.101" height="56.162" filterUnits="userSpaceOnUse">
      <feOffset dy="3" input="SourceAlpha"/>
      <feGaussianBlur stdDeviation="3" result="blur"/>
      <feFlood flood-color="#fff" flood-opacity="0.235"/>
      <feComposite operator="in" in2="blur"/>
      <feComposite in="SourceGraphic"/>
    </filter>
    <filter id="Path_22" x="12.029" y="96.605" width="71.511" height="61.476" filterUnits="userSpaceOnUse">
      <feOffset dy="3" input="SourceAlpha"/>
      <feGaussianBlur stdDeviation="3" result="blur-2"/>
      <feFlood flood-color="#fff" flood-opacity="0.235"/>
      <feComposite operator="in" in2="blur-2"/>
      <feComposite in="SourceGraphic"/>
    </filter>
  </defs>
  <g id="Group_65" data-name="Group 65" transform="translate(-247.113 -1479.92)">
    <text id="CBSE" transform="translate(348.887 1566.267)" fill="#fff" font-size="36" font-family="Helvetica" letter-spacing="0.002em"><tspan x="0" y="0">CBSE</tspan></text>
    <g id="Component_2_11" data-name="Component 2 – 11" transform="translate(256.113 1485.92)">
      <g transform="matrix(1, 0, 0, 1, -9, -6)" filter="url(#Path_28)">
        <path id="Path_28-2" data-name="Path 28" d="M14811.044,4046.72l-18.011-25.247s18.963-12.915,37.988-12.915,38.112,12.915,38.112,12.915l-16.847,25.247a176.774,176.774,0,0,0-20.3-1.32A195.689,195.689,0,0,0,14811.044,4046.72Z" transform="translate(-14784.03 -4002.56)" fill="#fff"/>
      </g>
      <g id="Icon_feather-book-open" data-name="Icon feather-book-open" transform="translate(12.03 43.383)">
        <path id="Path_20" data-name="Path 20" d="M3,4.5H18.691c5.777,0,10.461,5.236,10.461,11.694l-.013,36.3h0c-3.023-2.572-3.5-4.138-7.833-4.138H3Z" transform="translate(-3 -4.5)" fill="#fff"/>
        <path id="Path_21" data-name="Path 21" d="M44.151,4.5H28.461C22.683,4.5,18,9.736,18,16.194V52.5c1.518-.445,3.513-4.148,7.845-4.148H44.151Z" transform="translate(8.151 -4.5)" fill="#fff"/>
      </g>
      <g transform="matrix(1, 0, 0, 1, -9, -6)" filter="url(#Path_22)">
        <path id="Path_22-2" data-name="Path 22" d="M14827.54,4082.305s3.926-.835,9.918-1.66a115.949,115.949,0,0,1,43.593,1.722l-26.153,40.455Z" transform="translate(-14806.51 -3976.74)" fill="#fff"/>
      </g>
    </g>
  </g>
</svg>
